<?xml version="1.0" standalone="no"?>
<!DOCTYPE svg PUBLIC "-//W3C//DTD SVG 20010904//EN"
 "http://www.w3.org/TR/2001/REC-SVG-20010904/DTD/svg10.dtd">
<svg version="1.0" xmlns="http://www.w3.org/2000/svg"
 width="1270.000000pt" height="1270.000000pt" viewBox="0 0 1270.000000 1270.000000"
 preserveAspectRatio="xMidYMid meet">
<metadata>
Created by potrace 1.14, written by Peter Selinger 2001-2017
</metadata>
<g transform="translate(0.000000,1270.000000) scale(0.100000,-0.100000)"
fill="#000000" stroke="none">
<path d="M6388 12655 c-1 -1 -91 -5 -198 -8 -107 -3 -211 -8 -230 -11 -19 -3
-60 -7 -90 -10 -30 -3 -66 -7 -80 -10 -14 -2 -48 -7 -77 -10 -28 -3 -57 -8
-65 -10 -7 -3 -29 -7 -48 -10 -53 -8 -213 -44 -296 -67 -40 -11 -81 -22 -91
-24 -48 -9 -382 -128 -475 -169 -21 -9 -40 -16 -43 -17 -2 0 -37 -16 -77 -36
-40 -21 -75 -37 -78 -38 -15 -3 -200 -102 -293 -157 -26 -15 -50 -28 -53 -28
-3 0 -10 -4 -17 -10 -7 -5 -61 -42 -122 -81 -60 -40 -136 -91 -168 -115 -31
-24 -61 -44 -66 -44 -5 0 -11 -4 -13 -8 -1 -4 -37 -34 -78 -67 -41 -32 -86
-69 -100 -81 -14 -12 -47 -42 -74 -66 -114 -99 -245 -228 -365 -358 -70 -76
-75 -82 -157 -185 -43 -55 -82 -101 -86 -103 -5 -2 -8 -8 -8 -13 0 -8 -14 -28
-45 -63 -8 -9 -73 -106 -145 -216 -45 -69 -84 -135 -144 -245 -6 -11 -15 -23
-19 -26 -5 -3 -9 -9 -8 -12 0 -4 -43 -94 -95 -201 -52 -107 -94 -200 -94 -208
0 -8 -4 -18 -9 -24 -10 -10 -104 -263 -102 -272 1 -1 -6 -18 -14 -38 -8 -20
-17 -46 -20 -58 -2 -11 -18 -66 -35 -121 -16 -55 -32 -109 -34 -120 -3 -11
-18 -78 -34 -150 -17 -71 -33 -146 -36 -165 -3 -19 -8 -46 -11 -60 -3 -14 -7
-41 -10 -60 -3 -19 -7 -44 -9 -56 -2 -12 -7 -45 -11 -75 -3 -30 -8 -61 -10
-69 -2 -8 -6 -44 -10 -80 -3 -36 -7 -74 -9 -85 -2 -11 -7 -65 -11 -120 -3 -55
-8 -122 -10 -150 -6 -63 -17 -396 -18 -535 0 -95 2 -127 19 -240 9 -56 53
-180 87 -245 99 -185 336 -331 587 -361 95 -11 344 -5 367 9 4 3 26 8 47 11
86 14 259 63 323 92 17 8 34 14 38 14 5 0 69 25 144 54 187 75 301 117 301
110 0 -4 6 -2 13 3 12 10 182 60 222 66 11 1 25 5 30 8 6 3 25 6 43 8 l32 3 0
-299 0 -298 -32 -25 c-40 -32 -169 -140 -184 -154 -6 -6 -28 -24 -50 -41 -21
-16 -54 -44 -73 -60 -42 -35 -67 -56 -130 -109 -25 -21 -57 -48 -71 -60 -14
-11 -90 -75 -170 -140 -80 -66 -152 -127 -161 -135 -9 -9 -31 -28 -50 -43 -19
-14 -44 -35 -56 -45 -11 -10 -41 -34 -64 -53 -24 -19 -50 -42 -59 -50 -8 -8
-34 -30 -58 -48 l-42 -34 -2 -731 c-2 -481 -6 -732 -13 -731 -26 4 -214 -89
-215 -106 0 -3 -22 -29 -49 -58 -49 -52 -119 -191 -106 -212 3 -5 2 -11 -3
-13 -14 -9 -13 -141 1 -202 42 -181 166 -316 340 -370 182 -56 362 -12 498
124 65 66 129 174 129 219 0 12 4 23 9 26 9 6 7 185 -4 231 -31 139 -206 326
-325 349 -66 12 -60 -53 -60 701 l0 683 24 15 c13 9 29 22 37 29 8 8 68 58
134 113 66 54 133 111 149 127 16 15 38 30 48 34 10 3 18 9 18 13 0 4 30 32
68 62 37 30 76 62 87 73 11 10 36 30 55 45 19 14 47 37 61 51 15 14 43 39 65
55 65 51 208 171 230 193 7 6 15 12 18 12 3 0 6 -1188 6 -2641 l0 -2640 -62 1
c-35 1 -141 1 -236 1 l-172 -1 28 -53 c16 -28 37 -68 48 -87 10 -19 22 -37 27
-38 4 -2 7 -7 7 -12 0 -5 20 -43 45 -84 25 -42 45 -78 45 -81 0 -2 34 -61 75
-130 41 -70 75 -128 75 -130 0 -2 23 -42 50 -90 28 -48 50 -89 50 -93 0 -3 6
-13 14 -21 7 -9 27 -41 43 -71 40 -75 57 -100 64 -100 4 0 45 66 90 147 46 81
89 155 94 164 6 10 17 30 26 46 8 15 70 124 137 241 67 116 132 229 143 250
24 44 38 68 62 104 11 16 14 29 7 33 -5 3 -111 6 -235 6 l-225 0 0 2139 c0
1290 4 2140 9 2140 5 0 11 -3 13 -7 2 -5 30 -30 63 -58 33 -27 69 -58 80 -67
11 -9 79 -65 150 -125 72 -59 139 -116 150 -125 11 -9 49 -41 85 -70 36 -29
67 -55 70 -58 3 -3 30 -25 60 -50 30 -25 57 -47 60 -50 3 -3 46 -39 95 -80 50
-41 92 -78 93 -82 2 -5 8 -8 12 -8 5 0 20 -11 34 -24 l26 -23 0 -926 0 -926
-72 0 c-40 -1 -91 -1 -113 -2 -22 0 -43 0 -47 1 -9 2 -53 2 -123 1 l-45 -1 0
-500 0 -500 33 0 c46 -1 819 -1 900 0 l67 0 0 499 0 499 -30 4 c-16 3 -30 1
-30 -3 0 -4 -16 -3 -35 1 -21 5 -35 4 -35 -2 0 -5 -5 -6 -11 -2 -7 4 -50 6
-98 5 -95 -3 -96 -3 -131 1 l-25 3 -2 970 -3 969 -39 36 c-22 19 -54 46 -72
60 -18 14 -37 30 -43 35 -6 6 -105 89 -221 185 -115 96 -215 179 -221 185 -7
5 -31 26 -55 45 -24 19 -55 45 -69 57 -14 13 -29 26 -35 30 -8 6 -142 118
-209 174 -39 33 -81 67 -153 127 l-83 67 3 810 2 810 85 -1 c78 0 173 -9 210
-19 8 -2 40 -7 70 -10 30 -3 69 -8 85 -11 34 -6 59 -10 130 -19 28 -3 75 -10
105 -15 106 -17 135 -22 165 -25 95 -12 148 -19 200 -29 55 -10 100 -17 140
-20 22 -2 40 -5 40 -6 0 -1 14 -3 30 -4 17 -2 53 -6 80 -9 28 -4 73 -9 100
-12 28 -2 73 -7 100 -10 59 -7 212 -17 237 -17 17 1 18 -86 20 -1651 l3 -1651
170 -107 c94 -59 243 -154 333 -211 90 -57 174 -110 187 -118 13 -8 56 -35 95
-60 39 -25 82 -52 95 -60 14 -8 81 -51 150 -95 69 -44 163 -103 208 -131 45
-29 88 -57 95 -63 6 -7 12 -9 12 -6 0 3 6 1 13 -5 6 -6 56 -38 110 -72 l98
-61 -60 -61 c-33 -34 -71 -74 -84 -91 -24 -28 -28 -29 -108 -31 -67 -1 -155
-9 -199 -19 -38 -8 -128 -39 -137 -47 -7 -6 -13 -8 -13 -5 0 12 -137 -62 -195
-105 -164 -121 -264 -256 -331 -448 -12 -36 -25 -81 -28 -100 -3 -19 -8 -46
-11 -60 -8 -36 -8 -187 -1 -240 27 -191 113 -368 246 -509 75 -79 243 -193
306 -206 6 -2 27 -10 45 -18 19 -9 48 -18 64 -21 17 -4 41 -9 55 -12 14 -3 41
-8 60 -11 47 -8 1974 -8 2026 0 65 10 138 29 152 40 6 5 12 7 12 3 0 -3 24 6
53 20 313 159 466 524 355 849 -29 85 -74 173 -116 225 -39 48 -113 119 -124
120 -4 0 -13 7 -21 15 -44 44 -242 121 -319 124 -12 1 -21 15 -28 44 -6 23
-18 62 -27 87 -10 25 -16 48 -15 52 1 5 -2 8 -8 8 -6 0 -9 3 -8 8 3 10 -32 83
-50 105 -8 9 -11 17 -6 17 5 0 5 4 -1 8 -12 8 -55 69 -55 76 0 3 -15 21 -32
40 -18 19 -40 42 -49 52 -21 26 -76 73 -124 109 -22 17 -42 33 -45 36 -22 26
-218 112 -305 134 -51 13 -58 15 -110 22 -94 12 -329 4 -358 -14 -4 -2 -19 -7
-34 -9 -14 -3 -61 -19 -104 -35 -73 -28 -119 -32 -119 -9 0 4 -8 10 -17 14
-10 3 -38 19 -63 35 -25 17 -67 44 -95 61 -27 17 -77 49 -110 70 -33 22 -81
51 -107 66 -27 15 -48 31 -48 36 0 4 -5 8 -10 8 -6 0 -101 57 -211 127 -110
71 -207 133 -216 138 -10 6 -62 39 -118 75 -55 36 -104 67 -110 69 -5 2 -29
17 -52 32 -23 16 -44 29 -48 29 -3 0 -11 5 -18 11 -7 5 -75 50 -152 98 l-140
88 0 1593 0 1594 85 2 c98 2 234 12 270 19 14 3 45 7 70 10 25 3 56 7 70 10
34 7 57 11 110 20 25 4 52 9 60 10 8 1 47 8 87 15 88 14 108 18 108 20 0 1 15
3 34 6 19 2 46 7 60 10 27 5 55 10 106 18 17 3 41 8 55 11 14 3 41 8 60 10 19
3 46 8 60 11 13 3 40 8 60 10 19 2 46 7 60 9 14 3 47 7 75 11 27 3 52 7 55 9
3 1 52 6 110 10 58 4 121 8 140 10 19 1 40 0 47 -2 10 -4 13 -167 13 -799 l0
-793 -53 -16 c-76 -22 -146 -67 -214 -138 -140 -145 -172 -386 -75 -571 41
-78 145 -178 222 -213 86 -40 110 -45 208 -48 74 -3 127 4 172 22 8 3 21 7 28
9 8 1 31 14 53 28 21 15 39 24 39 21 0 -3 15 8 33 24 17 17 35 31 39 31 6 0
130 -78 153 -97 6 -4 60 -41 122 -82 l111 -74 -14 -33 c-8 -19 -11 -34 -8 -34
4 0 2 -6 -4 -12 -5 -8 -9 -57 -7 -113 2 -110 18 -169 67 -250 34 -57 126 -155
145 -155 7 0 13 -3 13 -8 0 -10 95 -52 154 -68 56 -15 207 -12 249 5 15 6 27
8 27 6 0 -3 30 11 68 31 39 21 92 61 127 97 103 106 145 218 141 370 -7 210
-143 385 -356 457 -53 18 -199 21 -260 5 -69 -18 -150 -58 -191 -95 -19 -16
-38 -30 -43 -30 -5 0 -31 16 -57 35 -27 19 -54 35 -59 35 -6 0 -10 3 -10 8 0
4 -9 12 -20 17 -11 6 -69 44 -129 85 l-110 74 15 35 c20 48 28 186 14 241 -6
25 -12 52 -12 60 -1 8 -5 17 -9 20 -4 3 -5 10 -1 16 7 10 369 254 377 254 3 0
26 -16 52 -36 128 -98 310 -129 461 -79 7 3 13 4 15 3 1 0 29 13 62 31 33 18
87 60 120 94 103 106 146 218 140 370 -7 221 -149 397 -371 460 -67 20 -213
15 -279 -7 -56 -20 -155 -76 -155 -88 0 -4 -7 -8 -15 -8 -8 0 -15 -3 -15 -7 0
-5 -17 -26 -38 -48 -32 -34 -91 -136 -99 -170 -1 -5 -6 -26 -10 -45 -12 -54
-9 -200 6 -253 13 -47 13 -49 -10 -65 -13 -9 -26 -15 -28 -13 -2 1 -7 -1 -10
-7 -9 -13 -309 -212 -320 -212 -5 0 -11 3 -13 8 -11 25 -148 101 -211 116
l-27 6 2 793 c3 784 3 792 23 792 11 0 36 -3 55 -7 19 -4 51 -10 70 -13 62
-10 231 -59 255 -74 6 -3 16 -7 23 -8 28 -7 41 -11 112 -38 19 -7 60 -21 90
-31 30 -10 59 -22 64 -26 6 -4 19 -8 31 -8 12 0 26 -5 33 -12 7 -7 12 -9 12
-6 0 4 26 -2 58 -13 133 -46 330 -87 455 -94 37 -2 71 -7 77 -10 5 -3 11 -1
15 5 4 7 12 7 24 0 10 -5 20 -7 22 -5 3 2 32 6 65 10 32 3 71 7 84 10 199 37
308 92 435 219 50 50 61 64 108 136 25 38 79 160 71 160 -2 0 0 8 5 18 24 46
30 138 30 517 1 213 -2 282 -14 430 -3 39 -8 95 -10 125 -3 30 -7 65 -9 77 -3
12 -7 47 -11 78 -3 31 -10 78 -14 103 -5 26 -9 54 -10 62 -1 24 -8 66 -15 87
-3 10 -8 36 -11 58 -4 22 -9 49 -12 60 -3 11 -7 29 -9 40 -5 37 -60 256 -71
285 -3 8 -8 24 -10 35 -2 11 -9 36 -15 55 -7 19 -13 37 -13 40 -1 3 -4 12 -8
20 -4 12 -37 111 -51 155 -2 6 -7 19 -11 30 -4 11 -21 55 -37 98 -44 116 -126
296 -198 437 -36 69 -66 131 -68 138 -2 6 -8 12 -13 12 -5 0 -9 4 -9 10 0 31
-323 507 -404 597 -6 6 -22 26 -36 44 -14 18 -40 48 -57 67 -18 19 -33 36 -33
38 0 10 -215 231 -331 340 -48 45 -188 163 -280 236 -76 61 -228 168 -238 168
-6 0 -11 5 -11 10 0 6 -7 10 -15 10 -8 0 -15 4 -15 8 0 5 -19 19 -42 32 -24
13 -45 26 -48 30 -3 4 -25 17 -50 31 -25 13 -47 26 -50 29 -17 17 -335 179
-465 236 -39 17 -122 50 -185 73 -63 24 -122 45 -130 48 -21 8 -182 58 -220
69 -137 37 -462 105 -489 102 -3 0 -8 1 -11 2 -7 3 -44 7 -135 14 -44 4 -91 9
-105 12 -14 2 -83 7 -155 10 -71 3 -135 7 -142 9 -6 2 -13 2 -15 0z m292 -378
c14 -3 55 -8 92 -12 37 -3 77 -8 90 -10 13 -2 57 -9 98 -15 41 -7 125 -23 185
-37 61 -14 120 -27 132 -29 30 -6 283 -82 308 -93 30 -14 58 -24 75 -27 14 -3
46 -17 84 -36 10 -5 26 -11 35 -13 34 -6 298 -131 324 -153 9 -8 17 -12 17 -9
0 4 22 -7 49 -23 26 -17 53 -30 60 -30 6 0 11 -4 11 -10 0 -5 5 -10 12 -10 7
0 28 -11 47 -24 20 -12 70 -45 111 -71 78 -50 291 -203 300 -214 3 -4 15 -14
27 -22 47 -32 223 -191 327 -295 83 -83 214 -226 248 -269 12 -16 27 -35 33
-41 6 -6 37 -47 70 -90 33 -43 63 -80 68 -82 4 -2 7 -10 7 -17 0 -7 4 -15 9
-17 11 -4 151 -214 151 -227 0 -5 3 -11 8 -13 9 -4 74 -114 132 -223 23 -44
47 -89 53 -100 6 -11 12 -22 12 -25 1 -3 10 -23 22 -45 20 -39 90 -199 123
-280 39 -96 111 -309 135 -400 9 -33 18 -67 20 -75 2 -8 11 -40 19 -70 8 -30
17 -66 20 -80 2 -14 9 -45 15 -70 5 -25 13 -61 16 -80 9 -53 14 -83 19 -106 2
-12 7 -45 11 -75 3 -30 8 -62 11 -71 3 -10 7 -44 10 -75 3 -32 7 -78 9 -103 2
-25 6 -80 9 -123 3 -43 8 -82 11 -87 3 -5 1 -11 -5 -15 -6 -4 -7 -13 -2 -23
10 -21 9 -607 -1 -642 -4 -14 -10 -38 -12 -54 -7 -34 -37 -94 -62 -122 -43
-48 -162 -113 -238 -130 -134 -31 -300 -17 -505 41 -30 9 -62 18 -70 20 -18 4
-168 54 -190 62 -8 3 -19 7 -25 9 -17 5 -249 85 -265 91 -8 3 -24 8 -35 10
-11 2 -27 6 -35 10 -23 9 -28 11 -130 38 -52 14 -108 27 -125 30 -16 2 -52 8
-80 12 -112 17 -499 5 -650 -21 -16 -3 -50 -8 -74 -10 -24 -3 -62 -8 -85 -12
-22 -4 -50 -8 -61 -10 -11 -1 -20 -3 -20 -4 0 -1 -16 -3 -35 -5 -19 -3 -46 -7
-60 -10 -14 -3 -52 -10 -85 -15 -33 -6 -71 -12 -85 -14 -14 -3 -41 -7 -60 -10
-19 -3 -46 -8 -60 -11 -13 -2 -40 -7 -60 -10 -20 -3 -47 -8 -60 -10 -38 -8
-69 -13 -190 -30 -169 -25 -236 -33 -341 -41 -96 -8 -409 -11 -409 -4 0 3 -33
5 -73 6 -68 1 -173 9 -227 19 -14 2 -49 6 -78 9 -29 3 -63 8 -75 11 -25 5 -97
15 -142 20 -16 2 -46 6 -65 10 -19 3 -46 8 -60 10 -14 2 -53 8 -86 14 -34 6
-79 13 -100 16 -22 2 -49 6 -60 9 -12 2 -39 7 -60 10 -22 3 -50 8 -64 11 -14
2 -47 7 -75 10 -27 3 -63 7 -80 10 -65 10 -146 18 -305 31 -139 11 -425 4
-450 -11 -3 -2 -26 -6 -50 -10 -25 -4 -76 -15 -115 -26 -38 -11 -74 -21 -80
-23 -19 -4 -150 -47 -170 -56 -135 -57 -601 -221 -668 -235 -10 -2 -26 -6 -35
-9 -9 -3 -30 -7 -47 -10 -16 -3 -50 -8 -75 -12 -25 -4 -79 -7 -120 -7 -68 -1
-94 2 -169 18 -55 11 -158 70 -206 119 -59 59 -85 131 -91 251 -6 110 -6 110
10 415 3 63 9 180 12 260 8 191 13 266 29 380 3 19 7 51 9 70 13 95 44 266 53
290 4 8 5 19 4 23 -1 4 6 36 15 70 9 34 18 73 20 87 3 14 7 32 11 40 3 8 7 20
8 25 23 97 102 333 155 460 22 55 42 105 43 110 2 6 22 50 45 99 23 49 42 93
42 97 0 5 5 9 12 9 6 0 8 3 5 7 -4 3 -3 11 2 17 5 6 27 47 50 91 23 44 47 89
54 100 111 185 245 391 273 422 7 7 34 42 60 78 26 36 51 65 56 65 4 0 8 7 8
15 0 8 4 15 8 15 4 0 26 23 47 52 40 52 352 371 410 418 17 14 48 41 70 60 23
19 54 45 70 57 17 13 64 49 105 81 150 117 469 313 611 377 19 8 41 19 49 24
98 57 542 221 666 247 6 1 49 11 95 22 83 21 227 49 284 56 17 2 46 7 65 10
63 10 104 15 195 22 50 3 92 8 94 10 6 5 543 -3 571 -9z m3005 -6012 c106 -54
159 -142 160 -265 0 -92 -27 -155 -93 -217 -59 -56 -133 -83 -209 -78 -77 5
-97 10 -139 36 l-35 21 89 56 c48 32 101 67 117 78 l29 22 -53 81 c-30 44 -55
81 -57 81 -4 0 -109 -68 -129 -83 -5 -4 -30 -21 -55 -37 -39 -25 -46 -27 -54
-13 -8 14 -4 93 7 138 9 39 48 100 85 134 32 29 91 63 114 65 3 1 9 4 13 8 4
4 40 6 80 4 57 -2 85 -9 130 -31z m-1390 -1065 c25 0 45 -3 45 -6 0 -4 -9 -22
-21 -41 -17 -27 -19 -36 -9 -48 7 -8 18 -15 25 -15 8 0 15 -3 17 -7 4 -9 65
-53 73 -53 3 0 11 -5 18 -11 7 -5 27 -19 45 -29 17 -11 32 -24 32 -30 0 -5
-21 -20 -47 -32 -69 -32 -180 -32 -248 1 -185 90 -231 332 -90 477 24 24 59
51 77 58 l33 14 3 -139 3 -139 44 0z m203 262 l33 -18 -28 -20 c-53 -38 -53
-38 -53 10 0 51 2 52 48 28z m148 -259 c-2 -32 -4 -61 -5 -66 -1 -7 -40 11
-51 24 -3 3 -15 11 -27 18 -31 16 -29 24 15 54 60 42 71 37 68 -30z m1002
-515 c6 -1 12 -5 12 -9 0 -4 11 -10 25 -13 38 -10 118 -96 142 -155 28 -66 26
-164 -5 -233 -26 -59 -91 -124 -151 -152 -65 -29 -189 -28 -248 2 -59 31 -120
94 -146 150 -19 44 -33 164 -20 185 4 7 68 -26 83 -42 3 -4 38 -28 78 -54 83
-55 74 -57 141 46 l44 69 -29 23 c-16 14 -34 24 -41 25 -6 0 -13 4 -15 8 -1 4
-36 28 -75 54 l-73 46 26 17 c59 39 128 48 252 33z m-6428 -698 c3 -1 9 -2 13
-1 29 5 132 -71 163 -121 80 -126 65 -279 -37 -379 -56 -55 -118 -81 -199 -85
-88 -3 -155 23 -219 86 -191 189 -54 513 213 505 34 -1 63 -3 66 -5z m5360
-1214 c253 -49 472 -212 584 -436 44 -87 81 -231 85 -329 1 -31 3 -33 31 -29
17 3 33 1 36 -3 2 -4 17 -4 33 1 16 4 31 6 34 4 2 -3 27 -6 55 -8 28 -2 56 -8
64 -12 7 -5 20 -9 28 -11 31 -4 118 -55 167 -98 57 -50 98 -111 131 -195 107
-275 -39 -576 -323 -662 -70 -22 -76 -22 -1035 -22 -934 1 -1013 2 -1110 26
-50 12 -164 66 -213 100 -43 30 -157 139 -157 150 0 5 -8 17 -18 28 -30 33
-82 146 -103 227 -15 60 -20 104 -18 188 2 61 5 115 8 120 3 6 6 12 6 15 9 59
56 167 103 237 153 229 453 357 711 306 35 -8 65 -12 66 -11 2 2 19 28 38 59
116 183 366 346 540 353 15 0 27 3 27 6 0 8 188 4 230 -4z m-2730 -576 l0
-298 -300 -1 -300 0 0 299 0 299 300 0 300 0 0 -299z m-1374 -1301 c92 2 106
-3 82 -27 -7 -7 -8 -12 -2 -12 5 0 4 -4 -1 -8 -6 -4 -53 -82 -105 -174 -52
-93 -98 -168 -101 -168 -3 0 -11 10 -17 23 -6 12 -24 45 -40 72 -76 130 -142
248 -142 253 0 3 -8 14 -17 24 -16 18 -12 18 105 16 67 -2 122 1 122 5 0 5 5
5 11 1 6 -3 53 -6 105 -5z"/>
<path d="M4537 9894 c-2 -2 -18 -5 -36 -6 -18 -1 -35 -6 -37 -10 -3 -5 -9 -6
-13 -3 -12 7 -135 -37 -209 -74 -245 -124 -427 -367 -480 -641 -8 -46 -9 -264
0 -315 9 -54 48 -177 60 -192 6 -7 8 -13 4 -13 -3 0 6 -19 21 -42 14 -24 25
-44 24 -46 -6 -8 77 -118 132 -174 126 -131 262 -209 442 -254 17 -4 37 -9 45
-11 34 -9 248 -11 295 -3 83 15 99 19 160 40 68 23 208 97 250 131 61 51 165
162 198 212 43 65 88 147 82 147 -3 0 3 17 13 38 17 33 24 55 38 117 29 128
27 310 -4 428 -19 70 -29 97 -65 177 -16 35 -60 104 -69 108 -5 2 -8 10 -8 17
0 16 -185 205 -201 205 -5 0 -19 8 -30 19 -21 20 -129 74 -194 98 -82 31 -208
51 -311 50 -57 0 -105 -2 -107 -3z m274 -213 c144 -34 292 -128 384 -243 41
-50 105 -162 105 -181 0 -3 5 -18 12 -34 13 -33 14 -36 25 -88 9 -45 10 -227
1 -265 -24 -102 -69 -213 -104 -251 -8 -8 -14 -20 -14 -25 0 -9 -100 -115
-132 -139 -60 -48 -148 -97 -194 -110 -34 -10 -35 -10 -54 -18 -67 -26 -276
-31 -350 -7 -19 6 -45 13 -58 16 -40 8 -150 64 -180 92 -7 6 -17 12 -20 12
-10 0 -120 111 -150 149 -41 54 -103 192 -118 265 -3 11 -7 57 -11 102 -10
134 24 276 94 396 36 62 45 74 110 143 91 95 239 171 388 198 39 7 221 -1 266
-12z"/>
<path d="M4656 9503 c-4 -4 -21 -8 -39 -8 -149 -6 -278 -156 -263 -310 7 -78
10 -90 23 -106 6 -8 11 -17 10 -21 -1 -4 15 -27 35 -52 110 -131 316 -138 438
-16 146 146 106 385 -80 480 -22 11 -52 21 -68 23 -15 2 -33 6 -39 10 -5 3
-13 3 -17 0z m58 -226 c58 -58 41 -146 -33 -168 -22 -6 -45 -9 -53 -7 -7 3
-17 6 -21 6 -11 2 -32 24 -45 49 -38 69 22 149 101 138 22 -3 45 -11 51 -18z"/>
<path d="M7665 9880 c-184 -39 -327 -119 -460 -256 -105 -109 -171 -219 -213
-355 -31 -100 -36 -134 -36 -264 -1 -134 3 -170 35 -270 99 -320 369 -560 699
-620 25 -5 145 -17 165 -16 61 0 164 15 225 32 79 21 193 68 198 81 2 4 8 8
14 8 20 0 117 72 179 133 68 66 119 123 119 133 0 3 12 24 28 47 37 56 84 160
97 217 29 124 34 165 31 270 -3 100 -6 129 -20 185 -2 6 -6 24 -10 40 -4 17
-9 35 -11 40 -1 6 -3 13 -3 18 -4 23 -100 196 -135 240 -80 103 -250 247 -292
247 -8 0 -15 4 -15 9 0 5 -8 11 -17 14 -10 3 -49 18 -88 32 -139 53 -336 67
-490 35z m365 -205 c63 -16 150 -51 160 -64 3 -3 20 -15 39 -25 96 -53 204
-178 260 -300 12 -27 23 -57 24 -67 1 -11 6 -19 11 -19 5 0 7 -3 4 -6 -3 -3 0
-28 7 -55 19 -72 12 -272 -12 -329 -3 -8 -7 -21 -9 -28 -5 -27 -64 -144 -93
-184 -102 -146 -246 -240 -436 -285 -11 -2 -60 -6 -110 -8 -93 -5 -195 11
-270 41 -59 23 -109 47 -115 54 -3 4 -15 13 -28 19 -84 45 -203 187 -254 306
-54 124 -71 290 -43 413 7 29 13 55 13 58 2 19 42 109 71 159 34 59 43 71 109
140 43 46 138 116 146 108 3 -4 6 -2 6 4 0 10 133 66 157 66 7 0 13 4 13 9 0
5 3 7 8 5 4 -3 25 -2 47 3 65 12 225 4 295 -15z"/>
<path d="M7849 9506 c-2 -3 -24 -7 -48 -11 -147 -22 -260 -164 -247 -310 6
-77 9 -90 23 -106 6 -8 12 -18 12 -24 2 -27 76 -96 132 -123 118 -57 263 -29
352 67 20 22 37 44 37 48 0 4 8 22 17 38 25 46 24 177 -3 236 -42 90 -128 159
-218 173 -21 4 -42 8 -46 11 -4 2 -9 3 -11 1z m52 -223 c36 -21 53 -62 44
-104 -20 -89 -132 -107 -178 -29 -21 36 -21 64 0 100 29 50 83 63 134 33z"/>
</g>
</svg>
