<?xml version="1.0"?>
    <svg 
        xmlns:rdf="http://www.w3.org/1999/02/22-rdf-syntax-ns#" xmlns="http://www.w3.org/2000/svg"
        xmlns:cc="http://creativecommons.org/ns#" 
        xmlns:dc="http://purl.org/dc/elements/1.1/"
        xmlns:svg="http://www.w3.org/2000/svg" 
        id="jelly-image" 
        viewBox="0 0 440 635" 
        version="1.1">
        <title id="title">Eutima</title>
        <defs>
            <style type="text/css"><![CDATA[
            @keyframes fadeIn {
                from {
                    opacity: 0;
                }
                to {
                    opacity: 1;
                }
            }
            @keyframes draw {
                from {
                    stroke-dasharray: 0, 100;
                    stroke-dashoffset: 0;
                }
                to {
                    stroke-dasharray: 100, 0;
                    stroke-dashoffset: -100;
                }
            }
            @keyframes colorChangeStroke {
                0% {
                    stroke: #1b84b9;
                }
                50% {
                    stroke: #550264;
                }
                100% {
                    stroke: #1b84b9;
                }
            }
            @keyframes colorChangeFill {
                0% {
                    fill: #1b84b9;
                }
                50% {
                    fill: #550264;
                }
                100% {
                    fill: #1b84b9;
                }
            }
            @keyframes moveEye {
                0% {
                    transform: translate(0, 0);
                }
                2% {
                    transform: translate(-20px, 0);
                }
                4% {
                    transform: translate(0, 0);
                }
                6% {
                    transform: translate(20px, 0);
                }
                8% {
                    transform: translate(0, 0);
                }
                100% {
                    transform: translate(0, 0);
                }
            }

            #jelly {
                stroke-width: 10;
                stroke: green;
                fill: none;
                animation: draw 4s ease-in-out forwards, colorChangeStroke 4s ease-in-out forwards;
            }
            #tentacles-share > circle {
                animation: fadeIn 4s ease-in-out forwards, colorChangeFill 4s ease-in-out forwards;
            }

            #tentacles-git {
                animation: fadeIn 4s ease-in-out forwards, colorChangeFill 4s ease-in-out forwards;
            }
            .eye-inner {
                animation: moveEye 20s ease-in-out 5s forwards infinite;
            }

            .logo {
                opacity: 0;
                fill: #1b84b9;
                animation: fadeIn 2s 3s forwards;
            }
            ]]></style>
        </defs>
        <g id="jelly">
            <g id="head" transform="translate(15 15)">
                <path id="head-profile"
                    d="m201.69-7.5312c-77.1 0.3163-149.93 49.261-183.53 117.84-18.402 35.85-25.414 76.281-25.5 116.34-1.4027 14.147 0.27198 31.621 13.844 39.469 17.884 11.168 40.588 5.0721 58.699-2.7244 19.552-7.8878 40.635-14.99 61.877-10.359 37.088 4.4216 74.913 14.254 112.27 6.2713 29.479-4.1784 60.447-14.485 89.688-4.125 20.825 6.8721 43.22 17.612 65.469 10.5 13.537-4.5521 22.97-18.752 21.281-33.094 2.57-52.23-10.12-105.69-40.45-148.57-34.65-50.629-91.78-86.147-153.46-90.836-6.71-0.5997-13.45-0.8378-20.19-0.7252z" />
                <path id="path2985"
                    d="m204.61 0.46087c-112.17 0-203.13 95.976-203.13 214.38 0 8.459-4.3313 32.291 4.7128 40.791 26.525 24.931 67.081-11.66 100.86-11.839 33.017-0.17518 65.64 10.742 98.656 10.524 33.051-0.21838 65.606-11.419 98.656-11.839 32.618-0.41432 71.65 32.831 97.552 9.2082 8.3276-7.5946 5.7927-28.387 5.7927-36.845 0-118.4-90.93-214.38-203.11-214.38z" />
                
                <g id="eyes">
                    <circle class="eye-outer" cx="120" cy="170" r="40"></circle>
                    <circle class="eye-inner" cx="120" cy="160" r="10"></circle>
                    <circle class="eye-outer" cx="280" cy="170" r="40"></circle>
                    <circle class="eye-inner" cx="280" cy="160" r="10"></circle>
                </g>
            </g>


            <g id="tentacles-cloud" transform="translate(220, 265)">
                <path d="M0 0 V182" />
                <path d="M-2 178 L85 233" />
                <g id="cloud" transform="translate(-20, 160) scale(10)">
                    <path
                        stroke-width="1"
                        d="M17,10.57a3,3,0,0,1,1.18.23,3.11,3.11,0,0,1,1,.64,2.82,2.82,0,0,1,.65,1,3,3,0,0,1-1.6,3.95,3.08,3.08,0,0,1-1.16.23H8a4,4,0,0,1-1.56-.31,4,4,0,0,1,0-7.38A4,4,0,0,1,8,8.57a3.54,3.54,0,0,1,.73.07,4.63,4.63,0,0,1,.72-.87,4.72,4.72,0,0,1,.89-.65,4.58,4.58,0,0,1,1-.41,4.79,4.79,0,0,1,1.13-.14,4.37,4.37,0,0,1,1.64.3,4.55,4.55,0,0,1,1.36.84,4.39,4.39,0,0,1,1,1.27A4.66,4.66,0,0,1,17,11.1Z" />
                </g>
            </g>

            <g id="tentacles-share" transform="translate(320, 255)">
                <path d="M0 0 V120" />
                <circle cx="0" cy="120" r="20" />

                <path d="M0 120 L60 80" />
                <circle cx="60" cy="80" r="20" />

                <path d="M0 120 L60 160" />
                <circle cx="60" cy="160" r="20" />
            </g>

            <g id="tentacles-git" transform="translate(120, 255)">
                <path d="M0 0 V330" />
                <path d="M0 330 H 20 L 0 365 L -20 330 Z" />

                <path fill="none" d="M0 100 L60 150 V250" />
                <rect x="40" y="250" width="40" height="40" />

                <path fill="none" d="M0 50 L-60 100 V180" />
                <circle cx="-60" cy="195" r="20"></circle>
            </g>
            
            
        </g>

        <g id="kydo-logo" class="logo" stroke-width="18" transform="translate(205, 505) scale(0.07)" >
            <path d="M2617.66,930.23a12.13,12.13,0,0,0-12.07-10.69H2521a12.21,12.21,0,0,0-12.12,14.08,211.46,211.46,0,0,1,2.56,25.86H2353.55a30.92,30.92,0,0,0-56.69,0H2081.4a57,57,0,1,0,0,24.71h215.46a30.92,30.92,0,0,0,56.69,0h157.39a211.23,211.23,0,0,1-3.54,25.47,12.12,12.12,0,0,0,11.92,14.47h85.21a12.12,12.12,0,0,0,12-10.37,328.5,328.5,0,0,0,1.11-83.53Zm-591.55,77.32a36,36,0,1,1,36-36A36,36,0,0,1,2026.11,1007.55Zm299.57-17.74a18,18,0,1,1,18-18A18,18,0,0,1,2325.68,989.81Z" transform="translate(-460.87 -649.92)"/>
            <path d="M2593.5,1048.83h-90.13a12.17,12.17,0,0,0-11.06,7.14,210.82,210.82,0,0,1-20.51,35.16h-241a44.57,44.57,0,1,0,0,24.7H2451a212.31,212.31,0,0,1-17.53,16c-8.89,7.24-3.83,21.6,7.63,21.6h114a12.21,12.21,0,0,0,10.16-5.47,323.84,323.84,0,0,0,39.81-83.4A12.15,12.15,0,0,0,2593.5,1048.83Zm-405.44,83.72a29,29,0,1,1,29-29A29,29,0,0,1,2188.06,1132.55Z" transform="translate(-460.87 -649.92)"/>
            <path d="M2433.48,812.56a212.31,212.31,0,0,1,17.53,16H2230.76a44.57,44.57,0,1,0,0,24.7h241a210.82,210.82,0,0,1,20.51,35.16,12.19,12.19,0,0,0,11.06,7.14h90.13a12.15,12.15,0,0,0,11.63-15.72,323.84,323.84,0,0,0-39.81-83.4,12.21,12.21,0,0,0-10.16-5.47h-114C2429.65,791,2424.59,805.32,2433.48,812.56ZM2188,870a29,29,0,1,1,29-29A29,29,0,0,1,2188,870Z" transform="translate(-460.87 -649.92)"/>
            <path d="M2507.27,1178.13H2309.46a15.18,15.18,0,0,0-15.18,15.18v30h-77.19a30.93,30.93,0,0,0-57.15,0h-76.87l0-32.51h0V1185a20,20,0,0,0-3.46-11.25l-74-108.86c-11.07-16.29-36.55-8.45-36.55,11.25v196.49a20,20,0,0,0,20,20H2063a20,20,0,0,0,20-20l0-24.7h77.38a30.89,30.89,0,0,0,56.19,0h77.67v45.17h0a324.33,324.33,0,0,0,223.38-88.77C2527.68,1195,2521,1178.13,2507.27,1178.13Zm-318.38,75a18,18,0,1,1,18-18A18,18,0,0,1,2188.89,1253.09Z" transform="translate(-460.87 -649.92)"/>
            <path d="M2005.89,879.28l74-108.86a20.06,20.06,0,0,0,3.46-11.25v-5.75h0l0-32.34h76.65a30.93,30.93,0,0,0,57.15,0h77.19v30a15.18,15.18,0,0,0,15.18,15.18h197.81c13.77,0,20.4-16.82,10.39-26.28a324.38,324.38,0,0,0-223.38-88.77h0v45.18h-77.67a30.88,30.88,0,0,0-56.19,0h-77.16l0-24.86a20,20,0,0,0-20-20h-73.87a20,20,0,0,0-20,20V868C1969.34,887.73,1994.82,895.57,2005.89,879.28Zm183-188.4a18,18,0,1,1-18,18A18,18,0,0,1,2188.84,690.88Z" transform="translate(-460.87 -649.92)"/>
        </g>
        
       <g id="pinit-logo" class="logo" stroke-width="40" transform="translate(245, 580) scale(0.02, -0.02)">
            <path d="M832 2581 c-206 -72 -218 -344 -19 -440 86 -41 177 -22 252 54 74 74 95 165 56 250 -55 120 -174 177 -289 136z m170 -54 c124 -68 130 -248 11 -331 -86 -60 -198 -40 -267 47 -26 32 -31 48 -34 105 -2 55 1 74 20 106 57 97 171 128 270 73z"/>
            <path d="M1587 2380 l-27 -32 0 -180 0 -180 29 -29 c23 -22 39 -29 68 -29 72 0 145 -29 188 -74 52 -53 65 -99 65 -222 0 -114 -23 -180 -79 -227 -64 -53 -99 -57 -524 -57 l-389 0 -29 -29 -29 -29 0 -417 0 -417 29 -29 29 -29 181 0 c176 0 181 1 208 24 l28 24 5 209 5 208 220 6 c186 5 232 10 295 28 280 83 473 301 519 586 12 76 12 233 0 307 -56 348 -321 588 -679 614 l-86 6 -27 -32z m193 -24 c273 -50 467 -221 540 -476 27 -95 37 -277 21 -380 -45 -284 -216 -480 -491 -561 -65 -19 -106 -22 -312 -26 l-238 -5 0 -234 0 -234 -200 0 -200 0 0 435 0 434 423 3 c421 3 422 3 475 27 107 48 156 144 156 306 -1 206 -92 310 -281 323 l-73 5 0 198 0 199 53 0 c28 -1 86 -7 127 -14z"/>
        </g> 
            
    </svg>
